<svg width="721" height="424" viewBox="0 0 721 424" fill="none" xmlns="http://www.w3.org/2000/svg">
<rect x="0.5" y="0.5" width="720" height="423" rx="39.5" stroke="black"/>
<path d="M358.542 194.333V170.223L350.85 177.915L346.708 173.625L361.5 158.833L376.292 173.625L372.15 177.915L364.458 170.223V194.333H358.542ZM343.75 206.167C342.123 206.167 340.731 205.588 339.573 204.43C338.415 203.272 337.835 201.879 337.833 200.25V191.375H343.75V200.25H379.25V191.375H385.167V200.25C385.167 201.877 384.588 203.27 383.43 204.43C382.272 205.59 380.879 206.169 379.25 206.167H343.75Z" fill="black" fill-opacity="0.38"/>
<path d="M253.364 253H248.435V238.455H253.463C254.907 238.455 256.148 238.746 257.185 239.328C258.226 239.906 259.027 240.737 259.585 241.821C260.144 242.905 260.423 244.203 260.423 245.713C260.423 247.228 260.142 248.53 259.578 249.619C259.019 250.708 258.212 251.544 257.156 252.126C256.105 252.709 254.841 253 253.364 253ZM251.07 250.72H253.236C254.249 250.72 255.094 250.536 255.771 250.166C256.448 249.792 256.957 249.236 257.298 248.497C257.639 247.754 257.81 246.826 257.81 245.713C257.81 244.6 257.639 243.677 257.298 242.943C256.957 242.205 256.453 241.653 255.786 241.288C255.123 240.919 254.299 240.734 253.314 240.734H251.07V250.72ZM262.813 253V242.091H265.306V243.909H265.42C265.619 243.279 265.96 242.794 266.442 242.453C266.93 242.107 267.487 241.935 268.112 241.935C268.254 241.935 268.412 241.942 268.587 241.956C268.767 241.965 268.916 241.982 269.035 242.006V244.371C268.926 244.333 268.753 244.3 268.516 244.271C268.284 244.238 268.059 244.222 267.842 244.222C267.373 244.222 266.951 244.323 266.577 244.527C266.208 244.726 265.917 245.003 265.704 245.358C265.491 245.713 265.384 246.123 265.384 246.587V253H262.813ZM275.052 253.213C273.987 253.213 273.064 252.979 272.282 252.51C271.501 252.041 270.895 251.385 270.464 250.543C270.038 249.7 269.825 248.715 269.825 247.588C269.825 246.461 270.038 245.474 270.464 244.626C270.895 243.779 271.501 243.121 272.282 242.652C273.064 242.183 273.987 241.949 275.052 241.949C276.118 241.949 277.041 242.183 277.822 242.652C278.603 243.121 279.207 243.779 279.633 244.626C280.064 245.474 280.279 246.461 280.279 247.588C280.279 248.715 280.064 249.7 279.633 250.543C279.207 251.385 278.603 252.041 277.822 252.51C277.041 252.979 276.118 253.213 275.052 253.213ZM275.066 251.153C275.644 251.153 276.127 250.995 276.515 250.678C276.904 250.356 277.192 249.925 277.382 249.385C277.576 248.845 277.673 248.244 277.673 247.581C277.673 246.913 277.576 246.31 277.382 245.77C277.192 245.225 276.904 244.792 276.515 244.47C276.127 244.148 275.644 243.987 275.066 243.987C274.475 243.987 273.982 244.148 273.589 244.47C273.201 244.792 272.91 245.225 272.716 245.77C272.526 246.31 272.431 246.913 272.431 247.581C272.431 248.244 272.526 248.845 272.716 249.385C272.91 249.925 273.201 250.356 273.589 250.678C273.982 250.995 274.475 251.153 275.066 251.153ZM282.462 257.091V242.091H284.99V243.895H285.139C285.272 243.63 285.459 243.348 285.7 243.05C285.942 242.747 286.268 242.489 286.68 242.276C287.092 242.058 287.618 241.949 288.257 241.949C289.1 241.949 289.86 242.164 290.537 242.595C291.219 243.021 291.759 243.653 292.156 244.491C292.559 245.325 292.76 246.348 292.76 247.56C292.76 248.758 292.563 249.776 292.17 250.614C291.777 251.452 291.242 252.091 290.565 252.531C289.888 252.972 289.121 253.192 288.264 253.192C287.639 253.192 287.121 253.088 286.709 252.879C286.297 252.671 285.965 252.42 285.714 252.126C285.468 251.828 285.277 251.546 285.139 251.281H285.033V257.091H282.462ZM284.983 247.545C284.983 248.251 285.082 248.869 285.281 249.399C285.485 249.929 285.776 250.344 286.155 250.642C286.538 250.936 287.002 251.082 287.547 251.082C288.115 251.082 288.591 250.931 288.974 250.628C289.358 250.32 289.647 249.901 289.841 249.371C290.04 248.836 290.139 248.227 290.139 247.545C290.139 246.868 290.042 246.267 289.848 245.741C289.654 245.216 289.365 244.804 288.982 244.506C288.598 244.207 288.12 244.058 287.547 244.058C286.998 244.058 286.531 244.203 286.148 244.491C285.764 244.78 285.473 245.185 285.274 245.706C285.08 246.227 284.983 246.84 284.983 247.545ZM301.521 257.091C301.17 257.091 300.846 257.063 300.548 257.006C300.254 256.954 300.02 256.892 299.844 256.821L300.441 254.818C300.815 254.927 301.149 254.979 301.442 254.974C301.736 254.97 301.994 254.877 302.217 254.697C302.444 254.522 302.636 254.229 302.792 253.817L303.012 253.227L299.056 242.091H301.783L304.298 250.33H304.411L306.933 242.091H309.667L305.299 254.321C305.095 254.899 304.826 255.393 304.489 255.805C304.153 256.222 303.741 256.539 303.254 256.757C302.771 256.98 302.193 257.091 301.521 257.091ZM315.833 253.213C314.768 253.213 313.845 252.979 313.064 252.51C312.282 252.041 311.676 251.385 311.245 250.543C310.819 249.7 310.606 248.715 310.606 247.588C310.606 246.461 310.819 245.474 311.245 244.626C311.676 243.779 312.282 243.121 313.064 242.652C313.845 242.183 314.768 241.949 315.833 241.949C316.899 241.949 317.822 242.183 318.603 242.652C319.385 243.121 319.988 243.779 320.414 244.626C320.845 245.474 321.061 246.461 321.061 247.588C321.061 248.715 320.845 249.7 320.414 250.543C319.988 251.385 319.385 252.041 318.603 252.51C317.822 252.979 316.899 253.213 315.833 253.213ZM315.848 251.153C316.425 251.153 316.908 250.995 317.297 250.678C317.685 250.356 317.974 249.925 318.163 249.385C318.357 248.845 318.454 248.244 318.454 247.581C318.454 246.913 318.357 246.31 318.163 245.77C317.974 245.225 317.685 244.792 317.297 244.47C316.908 244.148 316.425 243.987 315.848 243.987C315.256 243.987 314.763 244.148 314.37 244.47C313.982 244.792 313.691 245.225 313.497 245.77C313.307 246.31 313.213 246.913 313.213 247.581C313.213 248.244 313.307 248.845 313.497 249.385C313.691 249.925 313.982 250.356 314.37 250.678C314.763 250.995 315.256 251.153 315.848 251.153ZM330.196 248.412V242.091H332.767V253H330.274V251.061H330.161C329.914 251.672 329.509 252.171 328.946 252.56C328.387 252.948 327.698 253.142 326.879 253.142C326.164 253.142 325.532 252.983 324.983 252.666C324.438 252.344 324.012 251.878 323.705 251.267C323.397 250.652 323.243 249.908 323.243 249.037V242.091H325.814V248.639C325.814 249.33 326.003 249.88 326.382 250.287C326.761 250.694 327.258 250.898 327.874 250.898C328.252 250.898 328.619 250.805 328.974 250.621C329.33 250.436 329.621 250.161 329.848 249.797C330.08 249.428 330.196 248.966 330.196 248.412ZM335.411 253V242.091H337.904V243.909H338.017C338.216 243.279 338.557 242.794 339.04 242.453C339.528 242.107 340.084 241.935 340.709 241.935C340.851 241.935 341.01 241.942 341.185 241.956C341.365 241.965 341.514 241.982 341.632 242.006V244.371C341.524 244.333 341.351 244.3 341.114 244.271C340.882 244.238 340.657 244.222 340.439 244.222C339.971 244.222 339.549 244.323 339.175 244.527C338.806 244.726 338.515 245.003 338.301 245.358C338.088 245.713 337.982 246.123 337.982 246.587V253H335.411ZM353.827 242.091V244.08H347.378V242.091H353.827ZM348.99 253V241.061C348.99 240.327 349.142 239.716 349.445 239.229C349.753 238.741 350.165 238.376 350.681 238.135C351.197 237.893 351.77 237.773 352.4 237.773C352.845 237.773 353.24 237.808 353.586 237.879C353.931 237.95 354.187 238.014 354.353 238.071L353.841 240.06C353.732 240.027 353.595 239.993 353.429 239.96C353.264 239.922 353.079 239.903 352.875 239.903C352.397 239.903 352.059 240.019 351.86 240.251C351.666 240.479 351.569 240.805 351.569 241.232V253H348.99ZM355.841 253V242.091H358.412V253H355.841ZM357.133 240.543C356.726 240.543 356.376 240.408 356.082 240.138C355.788 239.863 355.642 239.534 355.642 239.151C355.642 238.762 355.788 238.433 356.082 238.163C356.376 237.889 356.726 237.751 357.133 237.751C357.545 237.751 357.895 237.889 358.184 238.163C358.478 238.433 358.625 238.762 358.625 239.151C358.625 239.534 358.478 239.863 358.184 240.138C357.895 240.408 357.545 240.543 357.133 240.543ZM363.626 238.455V253H361.055V238.455H363.626ZM371.1 253.213C370.006 253.213 369.061 252.986 368.266 252.531C367.475 252.072 366.867 251.423 366.441 250.585C366.015 249.742 365.801 248.75 365.801 247.609C365.801 246.487 366.015 245.502 366.441 244.655C366.872 243.803 367.473 243.14 368.245 242.666C369.016 242.188 369.923 241.949 370.965 241.949C371.637 241.949 372.272 242.058 372.868 242.276C373.47 242.489 374 242.82 374.459 243.27C374.923 243.72 375.288 244.293 375.553 244.989C375.818 245.68 375.951 246.504 375.951 247.46V248.249H367.009V246.516H373.486C373.481 246.023 373.375 245.585 373.167 245.202C372.958 244.813 372.667 244.508 372.293 244.286C371.924 244.063 371.493 243.952 371 243.952C370.475 243.952 370.013 244.08 369.615 244.335C369.218 244.586 368.908 244.918 368.685 245.33C368.467 245.737 368.356 246.184 368.351 246.672V248.185C368.351 248.819 368.467 249.364 368.699 249.818C368.931 250.268 369.256 250.614 369.672 250.855C370.089 251.092 370.577 251.21 371.135 251.21C371.509 251.21 371.848 251.158 372.151 251.054C372.454 250.945 372.717 250.786 372.939 250.578C373.162 250.37 373.33 250.112 373.444 249.804L375.844 250.074C375.693 250.708 375.404 251.262 374.978 251.736C374.556 252.205 374.016 252.569 373.358 252.83C372.7 253.085 371.947 253.213 371.1 253.213ZM387.845 253.213C386.78 253.213 385.857 252.979 385.075 252.51C384.294 252.041 383.688 251.385 383.257 250.543C382.831 249.7 382.618 248.715 382.618 247.588C382.618 246.461 382.831 245.474 383.257 244.626C383.688 243.779 384.294 243.121 385.075 242.652C385.857 242.183 386.78 241.949 387.845 241.949C388.911 241.949 389.834 242.183 390.615 242.652C391.396 243.121 392 243.779 392.426 244.626C392.857 245.474 393.072 246.461 393.072 247.588C393.072 248.715 392.857 249.7 392.426 250.543C392 251.385 391.396 252.041 390.615 252.51C389.834 252.979 388.911 253.213 387.845 253.213ZM387.859 251.153C388.437 251.153 388.92 250.995 389.308 250.678C389.696 250.356 389.985 249.925 390.175 249.385C390.369 248.845 390.466 248.244 390.466 247.581C390.466 246.913 390.369 246.31 390.175 245.77C389.985 245.225 389.696 244.792 389.308 244.47C388.92 244.148 388.437 243.987 387.859 243.987C387.268 243.987 386.775 244.148 386.382 244.47C385.994 244.792 385.703 245.225 385.509 245.77C385.319 246.31 385.224 246.913 385.224 247.581C385.224 248.244 385.319 248.845 385.509 249.385C385.703 249.925 385.994 250.356 386.382 250.678C386.775 250.995 387.268 251.153 387.859 251.153ZM395.255 253V242.091H397.748V243.909H397.861C398.06 243.279 398.401 242.794 398.884 242.453C399.372 242.107 399.928 241.935 400.553 241.935C400.695 241.935 400.854 241.942 401.029 241.956C401.209 241.965 401.358 241.982 401.476 242.006V244.371C401.367 244.333 401.194 244.3 400.958 244.271C400.726 244.238 400.501 244.222 400.283 244.222C399.814 244.222 399.393 244.323 399.019 244.527C398.65 244.726 398.358 245.003 398.145 245.358C397.932 245.713 397.826 246.123 397.826 246.587V253H395.255ZM417.428 238.455H420.063V247.957C420.063 248.999 419.817 249.915 419.324 250.706C418.837 251.497 418.15 252.115 417.265 252.56C416.379 253 415.345 253.22 414.161 253.22C412.972 253.22 411.935 253 411.05 252.56C410.165 252.115 409.478 251.497 408.99 250.706C408.503 249.915 408.259 248.999 408.259 247.957V238.455H410.894V247.737C410.894 248.343 411.026 248.883 411.292 249.357C411.561 249.83 411.94 250.202 412.428 250.472C412.916 250.737 413.493 250.869 414.161 250.869C414.828 250.869 415.406 250.737 415.894 250.472C416.386 250.202 416.765 249.83 417.03 249.357C417.295 248.883 417.428 248.343 417.428 247.737V238.455ZM422.813 257.091V242.091H425.342V243.895H425.491C425.623 243.63 425.81 243.348 426.052 243.05C426.293 242.747 426.62 242.489 427.032 242.276C427.444 242.058 427.969 241.949 428.609 241.949C429.451 241.949 430.211 242.164 430.888 242.595C431.57 243.021 432.11 243.653 432.508 244.491C432.91 245.325 433.112 246.348 433.112 247.56C433.112 248.758 432.915 249.776 432.522 250.614C432.129 251.452 431.594 252.091 430.917 252.531C430.24 252.972 429.473 253.192 428.616 253.192C427.991 253.192 427.472 253.088 427.06 252.879C426.648 252.671 426.317 252.42 426.066 252.126C425.82 251.828 425.628 251.546 425.491 251.281H425.384V257.091H422.813ZM425.335 247.545C425.335 248.251 425.434 248.869 425.633 249.399C425.836 249.929 426.128 250.344 426.506 250.642C426.89 250.936 427.354 251.082 427.898 251.082C428.467 251.082 428.942 250.931 429.326 250.628C429.71 250.32 429.998 249.901 430.192 249.371C430.391 248.836 430.491 248.227 430.491 247.545C430.491 246.868 430.394 246.267 430.2 245.741C430.005 245.216 429.717 244.804 429.333 244.506C428.95 244.207 428.471 244.058 427.898 244.058C427.349 244.058 426.883 244.203 426.499 244.491C426.116 244.78 425.825 245.185 425.626 245.706C425.432 246.227 425.335 246.84 425.335 247.545ZM437.884 238.455V253H435.313V238.455H437.884ZM445.287 253.213C444.221 253.213 443.298 252.979 442.517 252.51C441.735 252.041 441.129 251.385 440.699 250.543C440.272 249.7 440.059 248.715 440.059 247.588C440.059 246.461 440.272 245.474 440.699 244.626C441.129 243.779 441.735 243.121 442.517 242.652C443.298 242.183 444.221 241.949 445.287 241.949C446.352 241.949 447.275 242.183 448.056 242.652C448.838 243.121 449.441 243.779 449.868 244.626C450.298 245.474 450.514 246.461 450.514 247.588C450.514 248.715 450.298 249.7 449.868 250.543C449.441 251.385 448.838 252.041 448.056 252.51C447.275 252.979 446.352 253.213 445.287 253.213ZM445.301 251.153C445.878 251.153 446.361 250.995 446.75 250.678C447.138 250.356 447.427 249.925 447.616 249.385C447.81 248.845 447.907 248.244 447.907 247.581C447.907 246.913 447.81 246.31 447.616 245.77C447.427 245.225 447.138 244.792 446.75 244.47C446.361 244.148 445.878 243.987 445.301 243.987C444.709 243.987 444.217 244.148 443.824 244.47C443.435 244.792 443.144 245.225 442.95 245.77C442.761 246.31 442.666 246.913 442.666 247.581C442.666 248.244 442.761 248.845 442.95 249.385C443.144 249.925 443.435 250.356 443.824 250.678C444.217 250.995 444.709 251.153 445.301 251.153ZM455.835 253.22C455.144 253.22 454.521 253.097 453.967 252.851C453.418 252.6 452.982 252.231 452.661 251.743C452.343 251.255 452.185 250.654 452.185 249.939C452.185 249.323 452.298 248.814 452.526 248.412C452.753 248.009 453.063 247.688 453.456 247.446C453.849 247.205 454.292 247.022 454.784 246.899C455.281 246.771 455.795 246.679 456.325 246.622C456.964 246.556 457.483 246.497 457.881 246.445C458.278 246.388 458.567 246.303 458.747 246.189C458.932 246.071 459.024 245.888 459.024 245.642V245.599C459.024 245.064 458.866 244.65 458.548 244.357C458.231 244.063 457.774 243.916 457.178 243.916C456.548 243.916 456.048 244.054 455.679 244.328C455.314 244.603 455.068 244.927 454.94 245.301L452.54 244.96C452.729 244.297 453.042 243.743 453.477 243.298C453.913 242.848 454.446 242.512 455.075 242.29C455.705 242.062 456.401 241.949 457.163 241.949C457.689 241.949 458.212 242.01 458.733 242.134C459.254 242.257 459.73 242.46 460.161 242.744C460.591 243.024 460.937 243.405 461.197 243.888C461.463 244.371 461.595 244.974 461.595 245.699V253H459.124V251.501H459.038C458.882 251.804 458.662 252.089 458.378 252.354C458.098 252.614 457.746 252.825 457.32 252.986C456.898 253.142 456.403 253.22 455.835 253.22ZM456.503 251.331C457.019 251.331 457.466 251.229 457.845 251.026C458.224 250.817 458.515 250.543 458.719 250.202C458.927 249.861 459.031 249.489 459.031 249.087V247.801C458.951 247.867 458.813 247.929 458.619 247.986C458.43 248.043 458.217 248.092 457.98 248.135C457.743 248.178 457.509 248.215 457.277 248.249C457.045 248.282 456.844 248.31 456.673 248.334C456.29 248.386 455.946 248.471 455.643 248.589C455.34 248.708 455.101 248.874 454.926 249.087C454.751 249.295 454.663 249.565 454.663 249.896C454.663 250.37 454.836 250.727 455.182 250.969C455.527 251.21 455.968 251.331 456.503 251.331ZM468.229 253.192C467.372 253.192 466.605 252.972 465.928 252.531C465.25 252.091 464.715 251.452 464.322 250.614C463.929 249.776 463.733 248.758 463.733 247.56C463.733 246.348 463.932 245.325 464.33 244.491C464.732 243.653 465.274 243.021 465.956 242.595C466.638 242.164 467.398 241.949 468.236 241.949C468.875 241.949 469.401 242.058 469.812 242.276C470.224 242.489 470.551 242.747 470.793 243.05C471.034 243.348 471.221 243.63 471.354 243.895H471.46V238.455H474.038V253H471.51V251.281H471.354C471.221 251.546 471.029 251.828 470.778 252.126C470.527 252.42 470.196 252.671 469.784 252.879C469.372 253.088 468.854 253.192 468.229 253.192ZM468.946 251.082C469.491 251.082 469.955 250.936 470.338 250.642C470.722 250.344 471.013 249.929 471.212 249.399C471.411 248.869 471.51 248.251 471.51 247.545C471.51 246.84 471.411 246.227 471.212 245.706C471.018 245.185 470.729 244.78 470.345 244.491C469.966 244.203 469.5 244.058 468.946 244.058C468.373 244.058 467.895 244.207 467.511 244.506C467.128 244.804 466.839 245.216 466.645 245.741C466.451 246.267 466.354 246.868 466.354 247.545C466.354 248.227 466.451 248.836 466.645 249.371C466.844 249.901 467.135 250.32 467.518 250.628C467.907 250.931 468.383 251.082 468.946 251.082Z" fill="black" fill-opacity="0.38"/>
</svg>
